<svg xmlns="http://www.w3.org/2000/svg" version="1.0" preserveAspectRatio="xMidYMid meet" viewBox="142 356.32 723 276.68">

<g transform="translate(0.000000,1024.000000) scale(0.100000,-0.100000)" fill="#000000" stroke="none">
<path d="M7602 6662 c-66 -24 -124 -79 -153 -146 -37 -86 -619 -1827 -619 -1852 l0 -24 165 0 c182 0 181 0 149 62 -27 53 -14 109 63 268 257 532 312 649 322 685 6 23 11 133 11 258 0 215 0 219 -22 237 -19 15 -21 22 -12 37 10 16 29 18 210 18 184 0 199 -1 202 -18 2 -10 -5 -28 -15 -39 -16 -18 -18 -42 -21 -206 -2 -110 1 -213 8 -252 9 -51 52 -147 206 -459 182 -371 194 -398 194 -450 -1 -31 -7 -67 -15 -81 -8 -14 -14 -33 -15 -42 0 -16 14 -18 165 -18 l165 0 0 39 c0 41 -579 1782 -618 1858 -25 47 -79 97 -130 119 -60 25 -177 28 -240 6z"/>
<path d="M1510 6528 c-33 -17 -51 -35 -67 -68 l-23 -44 0 -893 0 -893 220 0 220 0 0 419 c0 325 3 421 13 429 7 6 96 12 222 14 l211 3 69 34 c179 88 275 259 275 491 0 276 -120 458 -338 514 -49 13 -125 16 -409 16 -342 0 -350 0 -393 -22z m677 -344 c52 -39 73 -81 73 -147 0 -111 -40 -179 -119 -206 -46 -15 -253 -15 -269 1 -17 17 -17 349 1 367 9 9 47 12 149 9 120 -3 140 -6 165 -24z"/>
<path d="M4018 6529 c-23 -13 -23 -52 1 -73 28 -26 71 -6 71 33 0 42 -36 62 -72 40z"/>
<path d="M3085 6396 c-25 -18 -15 -51 15 -51 20 0 26 6 28 26 4 31 -18 44 -43 25z"/>
<path d="M4163 6335 c-27 -19 -29 -42 -7 -73 21 -30 59 -29 81 4 15 24 15 29 2 53 -18 31 -46 37 -76 16z"/>
<path d="M3207 6274 c-13 -13 -7 -55 8 -60 21 -9 47 15 43 40 -3 21 -37 34 -51 20z"/>
<path d="M3985 6197 c-22 -32 -18 -56 11 -69 36 -17 59 0 59 42 0 28 -4 35 -28 41 -21 6 -30 3 -42 -14z"/>
<path d="M3074 6196 c-18 -47 18 -83 50 -50 15 14 15 19 3 38 -18 26 -45 33 -53 12z"/>
<path d="M7570 5902 c0 -278 3 -266 -109 -490 -39 -78 -71 -144 -71 -146 0 -3 -49 -106 -110 -231 -118 -244 -126 -273 -90 -332 38 -63 37 -63 488 -63 343 0 417 3 461 16 65 19 107 61 116 117 7 37 -6 66 -183 426 -105 212 -198 408 -206 434 -13 38 -16 95 -16 272 0 124 -4 226 -9 229 -5 4 -16 3 -25 0 -14 -5 -16 -35 -16 -238 0 -229 1 -232 29 -311 16 -44 45 -115 64 -157 20 -43 33 -79 29 -81 -4 -2 -59 -1 -122 3 -63 4 -116 6 -117 5 -2 -1 11 -23 28 -50 39 -62 221 -400 238 -442 28 -71 -8 -131 -93 -154 -52 -14 -529 -7 -567 9 -14 6 -32 24 -39 41 -17 42 -13 51 191 481 l174 365 0 265 0 265 -22 3 -23 3 0 -239z m378 -643 c4 -19 -23 -49 -44 -49 -17 0 -34 38 -26 58 7 19 66 11 70 -9z m86 -178 c17 -19 17 -20 -13 -35 -29 -15 -31 -15 -42 6 -10 18 -8 24 7 35 23 17 28 17 48 -6z m96 -158 c-1 -32 -15 -53 -35 -53 -24 0 -42 30 -30 50 7 12 65 14 65 3z"/>
<path d="M2940 6073 c-19 -24 -20 -35 -15 -103 6 -73 -13 -209 -35 -251 -5 -9 -38 -23 -75 -32 -200 -50 -336 -181 -385 -371 -67 -263 47 -514 285 -628 82 -39 93 -42 195 -46 138 -6 215 15 318 88 146 103 222 255 222 447 0 155 -49 271 -164 388 l-78 80 6 55 c8 81 32 141 71 177 39 35 50 68 41 117 -10 52 -31 63 -162 85 -166 29 -197 28 -224 -6z m239 -74 c76 -16 81 -23 44 -61 -18 -18 -39 -49 -47 -68 -19 -48 -46 -180 -46 -231 0 -39 5 -46 65 -102 118 -109 167 -213 169 -362 1 -142 -42 -244 -144 -339 -74 -68 -146 -97 -255 -104 -188 -11 -338 76 -423 243 -31 62 -36 81 -40 166 -7 153 36 269 134 358 62 57 119 85 221 111 85 21 98 30 112 73 21 72 45 266 34 289 -19 43 -7 51 65 44 36 -4 86 -11 111 -17z"/>
<path d="M2591 5291 c-40 -11 -48 -22 -57 -81 -9 -60 9 -160 40 -224 119 -243 456 -301 636 -110 75 79 111 164 118 272 6 112 0 118 -89 97 -98 -23 -179 -19 -304 15 -118 32 -281 47 -344 31z"/>
<path d="M3853 6064 c-23 -23 -25 -30 -17 -72 12 -70 9 -222 -4 -263 -9 -25 -33 -52 -77 -88 -116 -92 -178 -190 -209 -328 -44 -198 12 -393 154 -526 213 -201 519 -197 727 11 70 70 133 186 152 280 55 266 -96 542 -336 615 -50 15 -67 25 -74 44 -12 33 -1 98 27 155 48 96 24 139 -91 158 -38 6 -102 18 -142 26 -90 17 -79 19 -110 -12z m178 -80 c52 -8 97 -19 101 -23 4 -3 -1 -25 -12 -46 -25 -52 -40 -159 -30 -215 10 -54 34 -75 97 -84 91 -12 213 -108 263 -205 67 -133 67 -310 -2 -446 -36 -70 -131 -159 -208 -194 -170 -79 -388 -34 -509 104 -19 22 -50 73 -70 114 -35 75 -36 78 -36 196 1 99 5 130 23 176 28 70 77 135 166 219 37 36 74 77 82 92 7 14 18 78 24 142 10 101 9 119 -5 147 -14 25 -14 33 -4 40 7 4 16 6 20 4 3 -3 49 -12 100 -21z"/>
<path d="M3700 5287 c-47 -16 -57 -54 -42 -160 15 -105 49 -175 116 -243 174 -173 455 -156 601 38 62 83 87 155 88 256 1 116 -4 121 -118 92 -116 -29 -196 -28 -328 4 -119 29 -255 34 -317 13z"/>
<path d="M6155 5816 c-91 -23 -152 -56 -205 -112 -77 -82 -95 -128 -95 -249 0 -89 3 -106 28 -157 44 -91 133 -142 327 -192 210 -54 237 -70 247 -144 5 -35 1 -44 -30 -78 l-35 -39 -85 0 c-71 0 -90 4 -113 21 -43 31 -65 67 -71 112 l-6 42 -150 0 -150 0 6 -61 c7 -75 52 -172 106 -226 81 -81 207 -123 366 -123 287 1 456 132 472 366 10 141 -47 244 -170 304 -34 16 -125 46 -202 66 -77 19 -151 42 -165 51 -67 42 -81 114 -31 164 26 26 36 29 91 29 96 0 152 -40 165 -120 l7 -40 140 0 141 0 -6 63 c-16 168 -110 279 -272 321 -71 19 -238 20 -310 2z"/>
<path d="M4710 5220 l0 -590 165 0 165 0 0 229 0 229 47 4 c33 2 52 -1 67 -13 11 -9 67 -113 125 -230 l106 -214 173 -3 c119 -2 172 1 172 8 0 11 -92 192 -201 396 -27 50 -49 94 -49 97 0 3 20 17 44 31 104 61 151 155 149 297 -2 144 -61 244 -180 303 -81 41 -134 46 -469 46 l-314 0 0 -590z m559 347 c53 -19 76 -58 76 -128 0 -52 -3 -62 -30 -89 -35 -34 -99 -50 -206 -50 l-69 0 0 140 0 140 98 -1 c53 0 112 -5 131 -12z"/>
<path d="M1420 4480 l0 -50 3585 0 3585 0 0 50 0 50 -3585 0 -3585 0 0 -50z"/>
<path d="M1447 4273 c-4 -3 -7 -69 -7 -145 l0 -138 25 0 c24 0 25 3 25 59 l0 59 55 4 55 3 0 -62 c0 -61 1 -63 25 -63 l25 0 0 146 c0 145 0 145 -22 142 -20 -3 -23 -10 -26 -60 l-3 -58 -54 0 -55 0 0 60 c0 52 -3 60 -18 60 -10 0 -22 -3 -25 -7z"/>
<path d="M1704 4266 c-8 -21 3 -36 27 -36 15 0 20 6 17 22 -4 27 -35 37 -44 14z"/>
<path d="M2020 4135 c0 -138 1 -145 20 -145 17 0 20 7 21 53 2 83 10 102 44 102 l30 0 3 -77 c3 -73 4 -78 25 -78 21 0 22 3 20 81 -2 98 -5 106 -39 119 -20 8 -34 7 -56 -5 l-30 -15 4 55 c4 52 3 55 -19 55 l-23 0 0 -145z"/>
<path d="M2413 4260 c-39 -23 -51 -46 -59 -103 -8 -58 10 -110 49 -143 28 -23 37 -26 83 -21 29 3 55 3 59 -1 3 -3 17 -8 31 -9 23 -4 25 -1 18 19 -4 13 -7 32 -6 43 7 100 5 143 -11 172 -32 60 -105 80 -164 43z m112 -54 c45 -68 16 -166 -48 -166 -42 0 -67 26 -74 78 -12 92 77 157 122 88z"/>
<path d="M3070 4135 l0 -145 25 0 25 0 0 145 0 145 -25 0 -25 0 0 -145z"/>
<path d="M3174 4266 c-9 -24 4 -48 23 -44 12 2 18 12 18 28 0 29 -32 41 -41 16z"/>
<path d="M4029 4264 c-11 -14 -10 -18 6 -30 16 -12 21 -12 32 -1 16 15 7 47 -12 47 -7 0 -19 -7 -26 -16z"/>
<path d="M4260 4135 c0 -138 1 -145 20 -145 17 0 20 7 21 53 2 83 10 102 44 102 l30 0 3 -77 c3 -75 4 -78 27 -78 24 0 25 2 24 68 -1 88 -9 114 -42 132 -25 14 -30 13 -57 -2 l-30 -17 0 54 c0 48 -2 55 -20 55 -19 0 -20 -7 -20 -145z"/>
<path d="M4591 4136 l2 -146 23 0 c22 0 24 4 24 55 l0 55 45 0 c59 0 95 32 95 84 0 59 -32 83 -118 91 l-73 6 2 -145z m127 82 c33 -33 2 -78 -52 -78 -24 0 -26 3 -26 45 0 44 1 45 33 45 18 0 38 -5 45 -12z"/>
<path d="M4870 4262 c-48 -24 -76 -90 -65 -158 9 -60 57 -114 103 -114 91 0 137 59 130 163 -4 54 -8 63 -41 93 -42 39 -74 43 -127 16z m104 -54 c19 -27 21 -103 3 -137 -6 -14 -25 -29 -41 -34 -64 -21 -111 90 -67 161 17 26 27 32 55 32 25 0 39 -7 50 -22z"/>
<path d="M5140 4268 c-41 -22 -70 -75 -70 -130 0 -87 50 -148 122 -148 102 0 155 167 79 252 -30 34 -92 46 -131 26z m96 -59 c14 -15 19 -36 19 -74 0 -65 -22 -95 -71 -95 -27 0 -36 6 -49 30 -8 16 -15 45 -15 65 0 20 7 49 15 65 13 24 22 30 49 30 21 0 40 -8 52 -21z"/>
<path d="M5357 4273 c-4 -3 -7 -69 -7 -145 l0 -138 25 0 c24 0 25 3 25 55 0 52 2 55 24 55 19 0 31 -12 56 -55 24 -43 37 -55 55 -55 27 0 27 3 -13 79 l-23 43 20 22 c23 24 28 75 11 106 -6 11 -27 24 -48 30 -42 11 -115 13 -125 3z m133 -63 c18 -34 -4 -60 -50 -60 -40 0 -40 0 -40 40 0 40 0 40 40 40 29 0 42 -5 50 -20z"/>
<path d="M5609 4251 c-55 -56 -31 -107 66 -139 53 -18 70 -47 41 -71 -21 -18 -77 -4 -83 20 -5 20 -37 26 -48 10 -9 -16 16 -58 42 -70 50 -23 132 -4 147 34 21 55 -9 102 -79 125 -59 19 -79 45 -51 66 27 19 52 18 76 -6 25 -25 50 -26 50 -1 0 30 -47 61 -92 61 -30 0 -46 -7 -69 -29z"/>
<path d="M5893 4268 c-9 -12 -93 -256 -93 -271 0 -4 11 -7 24 -7 19 0 26 7 31 31 7 33 10 35 68 43 38 5 39 4 55 -34 11 -31 20 -40 39 -40 29 0 29 5 -1 82 -13 35 -35 95 -47 133 -19 54 -29 71 -45 73 -11 2 -25 -3 -31 -10z m43 -103 c20 -48 18 -55 -16 -55 -16 0 -30 3 -30 6 0 12 23 84 27 84 2 0 11 -16 19 -35z"/>
<path d="M6170 4135 l0 -145 86 0 c83 0 85 1 82 23 -3 19 -10 22 -60 25 l-58 3 0 119 0 120 -25 0 -25 0 0 -145z"/>
<path d="M6580 4158 c0 -68 -3 -132 -6 -144 -5 -19 -1 -21 58 -21 78 -1 94 7 109 56 27 91 -28 170 -95 136 l-26 -14 0 55 c0 47 -2 54 -20 54 -19 0 -20 -7 -20 -122z m104 -14 c22 -21 21 -87 -2 -107 -16 -15 -20 -15 -40 -1 -31 21 -31 87 0 108 27 19 23 19 42 0z"/>
<path d="M6910 4136 l0 -146 86 0 c83 0 85 1 82 23 -3 20 -9 22 -65 25 l-63 3 0 34 c0 33 1 34 48 37 40 3 47 6 50 26 3 20 0 22 -47 22 l-51 0 0 35 0 35 66 0 c62 0 65 1 62 23 -3 20 -9 22 -85 25 l-83 4 0 -146z"/>
<path d="M7536 4264 c-8 -21 1 -34 25 -34 14 0 19 7 19 25 0 29 -34 36 -44 9z"/>
<path d="M3284 4235 c-3 -8 -3 -19 1 -25 4 -7 -2 -14 -14 -17 -24 -6 -29 -43 -6 -43 12 0 15 -13 15 -58 0 -69 19 -102 59 -102 34 0 40 6 34 29 -3 13 -11 17 -24 14 -17 -5 -19 1 -19 56 0 54 2 61 20 61 13 0 20 7 20 20 0 13 -7 20 -20 20 -16 0 -20 7 -20 30 0 23 -4 30 -20 30 -11 0 -23 -7 -26 -15z"/>
<path d="M4140 4220 c0 -20 -5 -30 -15 -30 -8 0 -15 -9 -15 -20 0 -11 7 -20 15 -20 12 0 15 -14 15 -70 0 -75 10 -90 64 -90 34 0 37 37 4 42 -20 3 -23 10 -26 61 -3 55 -2 57 23 57 18 0 25 5 25 20 0 15 -7 20 -25 20 -21 0 -25 5 -25 30 0 23 -4 30 -20 30 -16 0 -20 -7 -20 -30z"/>
<path d="M8560 4224 c0 -17 -6 -28 -20 -31 -25 -7 -26 -31 -2 -41 13 -6 17 -19 17 -68 0 -72 14 -94 61 -94 27 0 34 4 34 20 0 15 -7 20 -25 20 -24 0 -25 3 -25 59 0 54 2 60 22 63 34 5 37 38 4 38 -22 0 -26 4 -26 30 0 23 -4 30 -20 30 -15 0 -20 -7 -20 -26z"/>
<path d="M1840 4187 c-13 -7 -31 -24 -38 -37 -17 -32 -9 -105 13 -130 21 -23 84 -27 103 -8 9 9 12 7 12 -8 0 -44 -63 -71 -90 -39 -14 17 -36 20 -45 6 -9 -15 35 -50 71 -57 36 -7 88 15 98 41 3 9 6 66 6 126 l0 109 -32 -2 c-18 -1 -42 1 -53 5 -11 3 -31 1 -45 -6z m70 -47 c22 -22 24 -37 10 -74 -10 -28 -47 -35 -68 -14 -19 19 -15 85 6 97 24 15 29 14 52 -9z"/>
<path d="M2893 4185 c-18 -8 -33 -21 -33 -30 0 -18 23 -20 50 -3 15 10 25 10 38 2 17 -11 30 -46 15 -42 -24 7 -93 -14 -103 -31 -33 -62 29 -115 91 -78 17 10 23 10 26 0 3 -7 14 -13 24 -13 18 0 20 6 18 58 -2 94 -15 128 -51 141 -38 13 -35 13 -75 -4z m77 -113 c0 -25 -19 -42 -47 -42 -31 0 -31 37 0 50 34 14 47 12 47 -8z"/>
<path d="M6403 4185 c-54 -23 -39 -53 17 -34 26 9 35 9 47 -4 22 -21 10 -33 -39 -40 -23 -3 -48 -14 -55 -23 -42 -58 24 -118 90 -83 16 9 22 9 25 0 2 -6 12 -11 23 -11 17 0 19 8 19 76 0 88 -8 108 -51 123 -39 13 -36 13 -76 -4z m77 -113 c0 -25 -19 -42 -47 -42 -31 0 -31 37 0 50 34 14 47 12 47 -8z"/>
<path d="M7160 4187 c-48 -24 -65 -100 -35 -157 17 -32 51 -46 90 -36 23 6 25 4 25 -32 0 -45 4 -52 31 -45 18 5 19 15 19 139 l0 134 -25 0 c-14 0 -25 -5 -25 -11 0 -5 -10 -3 -22 5 -27 19 -26 19 -58 3z m78 -85 c7 -65 -42 -96 -73 -48 -18 27 -12 74 13 93 23 19 56 -6 60 -45z"/>
<path d="M7705 4190 c-11 -4 -32 -5 -47 -3 l-28 6 0 -142 c0 -77 3 -141 6 -141 24 0 44 24 44 55 0 33 1 34 34 28 28 -4 39 -1 60 20 21 21 26 36 26 76 0 64 -6 79 -41 96 -15 8 -29 15 -31 14 -2 0 -12 -4 -23 -9z m41 -56 c26 -38 9 -98 -28 -102 -22 -3 -28 2 -32 20 -12 55 -10 72 10 92 21 22 31 20 50 -10z"/>
<path d="M7902 4184 c-12 -8 -22 -10 -22 -5 0 6 -9 11 -20 11 -19 0 -20 -7 -20 -100 0 -93 1 -100 20 -100 18 0 20 7 20 63 0 69 15 101 46 95 16 -3 19 -13 22 -81 3 -69 5 -77 22 -77 18 0 20 7 20 68 0 55 4 72 19 86 17 16 20 16 35 1 12 -12 16 -35 16 -86 0 -62 2 -69 20 -69 18 0 20 7 20 79 0 44 -3 87 -6 96 -11 28 -52 37 -86 20 -26 -13 -32 -13 -45 0 -18 19 -33 19 -61 -1z"/>
<path d="M8193 4190 c-34 -14 -56 -56 -56 -107 0 -59 34 -93 92 -93 45 0 83 32 63 52 -10 10 -17 10 -32 0 -29 -18 -58 -15 -70 7 -5 11 -10 22 -10 25 0 3 29 6 65 6 71 0 73 3 54 60 -8 22 -22 37 -45 46 -18 8 -35 14 -36 13 -2 0 -13 -4 -25 -9z m57 -49 c15 -29 13 -31 -30 -31 -22 0 -40 3 -40 6 0 18 24 44 40 44 11 0 24 -9 30 -19z"/>
<path d="M8408 4186 c-16 -8 -28 -11 -28 -5 0 5 -9 9 -20 9 -19 0 -20 -7 -20 -100 0 -93 1 -100 20 -100 11 0 20 3 21 8 0 4 2 35 4 68 3 70 9 84 35 84 28 0 34 -16 33 -92 -1 -65 0 -68 23 -68 23 0 24 2 24 75 0 70 -14 125 -31 125 -4 0 -13 2 -21 5 -7 3 -25 -1 -40 -9z"/>
<path d="M1708 4173 c-2 -10 -4 -54 -3 -98 1 -74 3 -80 23 -83 21 -3 22 -1 22 97 0 92 -2 101 -19 101 -10 0 -21 -8 -23 -17z"/>
<path d="M2641 4104 c3 -71 7 -88 23 -100 24 -17 68 -18 84 -2 9 9 12 9 12 0 0 -7 11 -12 25 -12 l25 0 0 100 c0 100 0 100 -25 100 -23 0 -24 -3 -27 -71 -3 -75 -17 -99 -52 -86 -13 5 -16 21 -16 82 0 74 0 75 -26 75 l-26 0 3 -86z"/>
<path d="M3170 4089 c0 -97 1 -100 21 -97 20 3 22 9 23 101 2 95 2 97 -21 97 -23 0 -23 -2 -23 -101z"/>
<path d="M3390 4186 c0 -2 16 -47 35 -100 19 -52 32 -102 29 -111 -4 -8 -17 -15 -30 -15 -19 0 -24 -5 -24 -25 0 -20 5 -25 24 -25 43 0 65 31 106 148 22 62 40 117 40 123 0 5 -10 9 -23 9 -19 0 -25 -10 -41 -66 -10 -36 -22 -62 -26 -57 -3 4 -14 34 -24 66 -15 49 -20 57 -42 57 -13 0 -24 -2 -24 -4z"/>
<path d="M3703 4168 c3 -13 16 -58 29 -100 21 -71 25 -78 49 -78 22 0 27 6 38 53 22 84 27 86 47 16 17 -55 23 -64 43 -64 20 0 26 11 52 90 35 108 35 107 7 103 -17 -2 -25 -14 -36 -58 -13 -53 -32 -89 -32 -61 0 7 -7 37 -16 67 -13 45 -19 54 -39 54 -20 0 -25 -9 -40 -65 -10 -36 -21 -62 -25 -58 -4 4 -12 34 -19 66 -11 51 -15 57 -38 57 -21 0 -24 -4 -20 -22z"/>
<path d="M4030 4090 c0 -93 1 -100 20 -100 19 0 20 7 20 100 0 93 -1 100 -20 100 -19 0 -20 -7 -20 -100z"/>
<path d="M7330 4107 c0 -69 3 -87 18 -100 22 -20 63 -22 81 -4 11 10 14 10 18 0 3 -7 13 -13 24 -13 17 0 19 8 19 101 0 97 -1 100 -22 97 -19 -3 -21 -9 -22 -65 -1 -72 -23 -106 -54 -87 -13 9 -18 28 -20 83 -3 63 -5 71 -22 71 -18 0 -20 -7 -20 -83z"/>
<path d="M7540 4090 c0 -93 1 -100 20 -100 19 0 20 7 20 100 0 93 -1 100 -20 100 -19 0 -20 -7 -20 -100z"/>
</g>
</svg>